# File created by Blade
# Date/Time:  Fri Jan 16 19:49:56 2015
# Frame Rate: 120.000 fps
#------------------------------------------------------
:FULLY-SPECIFIED
:DEGREES
654
root 20.106055 35.121736 -12.473109 -131.972368 1.446868 -177.922740
Spine 59.351744 1.781701 -6.755835
Head -16.270723 4.961040 -0.961953
LeftShoulder -21.475297 12.411361 11.685666
LeftArm -56.623039 7.769866 -96.666825
LeftForeArm 21.868875 -0.000000 -0.734644
LeftHand -2.307737 -0.000000 -41.532839
LeftHandThumb1 -26.253704 0.000000 33.147579
RightShoulder -25.559654 -45.034170 -3.563918
RightArm -19.334597 -18.828637 85.449214
RightForeArm -36.893783 0.000000 7.182118
RightHand 3.279330 -0.000000 46.334767
RightHandThumb1 -24.326973 -0.000000 -32.862282
LeftUpLeg -51.260416 6.964546 2.361017
LeftLeg -10.290840 -0.000000 0.000000
LeftFoot -3.900009 30.453207 -8.327078
LeftToeBase 27.140713 -0.000000 -0.000000
RightUpLeg -51.935088 0.751687 -6.343653
RightLeg -7.519320 -0.000000 0.000000
RightFoot -5.334061 -19.716015 15.106959
RightToeBase 26.962671 -0.000000 -0.000000
655
root 20.097905 35.131275 -12.526963 -132.607559 1.499767 -177.941124
Spine 58.860847 1.789296 -6.695528
Head -16.329786 4.925838 -0.847134
LeftShoulder -21.429692 12.051050 11.708584
LeftArm -56.630775 7.751623 -96.851441
LeftForeArm 21.590120 -0.000000 -0.738727
LeftHand -2.261956 -0.000000 -41.539736
LeftHandThumb1 -26.253704 0.000000 33.147579
RightShoulder -25.482685 -44.843143 -3.519952
RightArm -19.151204 -18.745642 85.528724
RightForeArm -36.931788 -0.000000 7.091992
RightHand 3.336576 -0.000000 46.177458
RightHandThumb1 -24.326973 -0.000000 -32.862282
LeftUpLeg -50.532349 6.985175 2.327218
LeftLeg -10.291020 -0.000000 0.000000
LeftFoot -4.013768 30.404647 -8.390408
LeftToeBase 27.214672 -0.000000 -0.000000
RightUpLeg -51.216613 0.722156 -6.232078
RightLeg -7.520946 -0.000000 0.000000
RightFoot -5.372993 -19.515786 15.236689
RightToeBase 26.882665 -0.000000 -0.000000
656
root 20.088109 35.139312 -12.578453 -133.215527 1.529178 -177.972190
Spine 58.348899 1.721750 -6.627767
Head -16.429400 4.958237 -0.845182
LeftShoulder -21.490066 11.793690 11.650590
LeftArm -56.521877 7.855829 -97.051085
LeftForeArm 21.403720 0.000000 -0.746592
LeftHand -2.235097 -0.000000 -41.509737
LeftHandThumb1 -26.253704 0.000000 33.147579
RightShoulder -25.545515 -44.799025 -3.380650
RightArm -18.825082 -18.742120 85.506285
RightForeArm -37.036543 -0.000000 7.192011
RightHand 3.423253 -0.000000 46.158509
RightHandThumb1 -24.326973 -0.000000 -32.862282
LeftUpLeg -49.840262 6.973292 2.303351
LeftLeg -10.290229 -0.000000 0.000000
LeftFoot -4.089046 30.382430 -8.426440
LeftToeBase 27.142713 -0.000000 -0.000000
RightUpLeg -50.556170 0.629337 -6.071630
RightLeg -7.456675 -0.000000 0.000000
RightFoot -5.480618 -19.237836 15.234354
RightToeBase 27.020621 -0.000000 -0.000000
657
root 20.080010 35.148676 -12.633552 -133.837659 1.565209 -177.995989
Spine 57.815029 1.742105 -6.544048
Head -16.424305 4.907025 -0.681469
LeftShoulder -21.489811 11.768311 11.674846
LeftArm -56.141908 7.918201 -97.255514
LeftForeArm 21.238214 -0.000000 -0.825305
LeftHand -2.225227 -0.000000 -41.514816
LeftHandThumb1 -26.253704 0.000000 33.147579
RightShoulder -25.479961 -44.654235 -3.279781
RightArm -18.642862 -18.745323 85.586602
RightForeArm -36.876018 -0.000000 7.190918
RightHand 3.323510 -0.000000 46.097516
RightHandThumb1 -24.326973 -0.000000 -32.862282
LeftUpLeg -49.132201 6.980094 2.276235
LeftLeg -10.276366 -0.000000 0.000000
LeftFoot -4.198564 30.332208 -8.498717
LeftToeBase 27.192514 -0.000000 -0.000000
RightUpLeg -49.862439 0.564672 -5.937214
RightLeg -7.427428 -0.000000 0.000000
RightFoot -5.543721 -19.002105 15.289840
RightToeBase 27.072275 -0.000000 -0.000000
658
root 20.072598 35.157624 -12.688753 -134.451066 1.607566 -178.021108
Spine 57.284855 1.742316 -6.476635
Head -16.513582 4.883372 -0.607635
LeftShoulder -21.509272 11.507938 11.702690
LeftArm -56.026225 7.971576 -97.450994
LeftForeArm 20.987364 -0.000000 -0.871125
LeftHand -2.244195 0.000000 -41.584376
LeftHandThumb1 -26.253704 0.000000 33.147579
RightShoulder -25.394819 -44.361364 -3.256226
RightArm -18.620085 -18.830850 85.692345
RightForeArm -36.885450 -0.000000 7.239543
RightHand 3.378761 0.000000 46.157236
RightHandThumb1 -24.326973 -0.000000 -32.862282
LeftUpLeg -48.473470 7.043604 2.178532
LeftLeg -10.198121 -0.000000 0.000000
LeftFoot -4.328297 30.202607 -8.512828
LeftToeBase 27.219339 -0.000000 -0.000000
RightUpLeg -49.174727 0.529062 -5.843249
RightLeg -7.409204 -0.000000 0.000000
RightFoot -5.616818 -18.843050 15.334212
RightToeBase 27.090125 -0.000000 -0.000000
659
root 20.064200 35.166371 -12.747198 -135.083969 1.664833 -178.033842
Spine 56.789621 1.731163 -6.452468
Head -16.653233 4.873543 -0.532386
LeftShoulder -21.614201 11.223006 11.675239
LeftArm -55.936605 7.986587 -97.525486
LeftForeArm 20.928074 -0.000000 -0.854429
LeftHand -2.195447 -0.000000 -41.548119
LeftHandThumb1 -26.253704 0.000000 33.147579
RightShoulder -25.253883 -44.060740 -3.296490
RightArm -18.568145 -18.817594 85.773599
RightForeArm -36.962705 -0.000000 7.302875
RightHand 3.333899 -0.000000 46.122165
RightHandThumb1 -24.326973 -0.000000 -32.862282
LeftUpLeg -47.738707 7.079830 2.141470
LeftLeg -10.202786 -0.000000 0.000000
LeftFoot -4.436062 30.160591 -8.537567
LeftToeBase 27.245793 -0.000000 -0.000000
RightUpLeg -48.474637 0.479257 -5.716368
RightLeg -7.371223 -0.000000 0.000000
RightFoot -5.691790 -18.619093 15.402968
RightToeBase 27.167582 -0.000000 -0.000000
